# Wavefront OBJ file
# Exported by Misfit Model 3D 1.2.4
# Mon Feb 21 01:22:12 2011

# 18 Vertices
v 0.0 0.0 -7.0
v 2.678784 0.0 -6.467157
v 4.949748 0.0 -4.949748
v 6.467157 0.0 -2.678784
v 7.0 0.0 0.0
v 6.467156 0.0 2.678785
v 4.949748 0.0 4.949748
v 2.678785 0.0 6.467156
v 0.000001 0.0 7.0
v -2.678782 0.0 6.467157
v -4.949746 0.0 4.949749
v -6.467156 0.0 2.678785
v -7.0 0.0 0.0
v -6.467156 0.0 -2.678785
v -4.949746 0.0 -4.949749
v -2.678781 0.0 -6.467158
v 0.0 42.0 -0.000002
v 0.0 0.0 0.0

# 96 Texture Coordinates
vt 0.0 1.0
vt 0.0 0.0
vt 1.0 0.0
vt 0.0 1.0
vt 0.0 0.0
vt 1.0 0.0
vt 0.0 1.0
vt 0.0 0.0
vt 1.0 0.0
vt 0.0 1.0
vt 0.0 0.0
vt 1.0 0.0
vt 0.0 1.0
vt 0.0 0.0
vt 1.0 0.0
vt 0.0 1.0
vt 0.0 0.0
vt 1.0 0.0
vt 0.0 1.0
vt 0.0 0.0
vt 1.0 0.0
vt 0.0 1.0
vt 0.0 0.0
vt 1.0 0.0
vt 0.0 1.0
vt 0.0 0.0
vt 1.0 0.0
vt 0.0 1.0
vt 0.0 0.0
vt 1.0 0.0
vt 0.0 1.0
vt 0.0 0.0
vt 1.0 0.0
vt 0.0 1.0
vt 0.0 0.0
vt 1.0 0.0
vt 0.0 1.0
vt 0.0 0.0
vt 1.0 0.0
vt 0.0 1.0
vt 0.0 0.0
vt 1.0 0.0
vt 0.0 1.0
vt 0.0 0.0
vt 1.0 0.0
vt 0.0 1.0
vt 0.0 0.0
vt 1.0 0.0
vt 0.0 1.0
vt 0.0 0.0
vt 1.0 0.0
vt 0.0 1.0
vt 0.0 0.0
vt 1.0 0.0
vt 0.0 1.0
vt 0.0 0.0
vt 1.0 0.0
vt 0.0 1.0
vt 0.0 0.0
vt 1.0 0.0
vt 0.0 1.0
vt 0.0 0.0
vt 1.0 0.0
vt 0.0 1.0
vt 0.0 0.0
vt 1.0 0.0
vt 0.0 1.0
vt 0.0 0.0
vt 1.0 0.0
vt 0.0 1.0
vt 0.0 0.0
vt 1.0 0.0
vt 0.0 1.0
vt 0.0 0.0
vt 1.0 0.0
vt 0.0 1.0
vt 0.0 0.0
vt 1.0 0.0
vt 0.0 1.0
vt 0.0 0.0
vt 1.0 0.0
vt 0.0 1.0
vt 0.0 0.0
vt 1.0 0.0
vt 0.0 1.0
vt 0.0 0.0
vt 1.0 0.0
vt 0.0 1.0
vt 0.0 0.0
vt 1.0 0.0
vt 0.0 1.0
vt 0.0 0.0
vt 1.0 0.0
vt 0.0 1.0
vt 0.0 0.0
vt 1.0 0.0

# 96 Vertex Normals
vn 0.28922 -0.65484 -0.698238
vn 0.0 -0.65484 -0.755768
vn 0.000001 1.0 0.0
vn 0.000001 1.0 0.0
vn 0.534408 -0.65484 -0.534408
vn 0.28922 -0.65484 -0.698238
vn 0.000001 1.0 0.0
vn 0.698238 -0.65484 -0.28922
vn 0.534408 -0.65484 -0.534408
vn 0.000001 1.0 0.0
vn 0.755768 -0.65484 0.0
vn 0.698238 -0.65484 -0.28922
vn 0.000001 1.0 0.0
vn 0.698238 -0.65484 0.28922
vn 0.755768 -0.65484 0.0
vn 0.000001 1.0 0.0
vn 0.534408 -0.65484 0.534408
vn 0.698238 -0.65484 0.28922
vn 0.000001 1.0 0.0
vn 0.28922 -0.65484 0.698238
vn 0.534408 -0.65484 0.534408
vn 0.000001 1.0 0.0
vn 0.0 -0.65484 0.755768
vn 0.28922 -0.65484 0.698238
vn 0.000001 1.0 0.0
vn -0.28922 -0.65484 0.698238
vn 0.0 -0.65484 0.755768
vn 0.000001 1.0 0.0
vn -0.534408 -0.65484 0.534409
vn -0.28922 -0.65484 0.698238
vn 0.000001 1.0 0.0
vn -0.698238 -0.65484 0.28922
vn -0.534408 -0.65484 0.534409
vn 0.000001 1.0 0.0
vn -0.755768 -0.65484 -0.0
vn -0.698238 -0.65484 0.28922
vn 0.000001 1.0 0.0
vn -0.698238 -0.65484 -0.28922
vn -0.755768 -0.65484 -0.0
vn 0.000001 1.0 0.0
vn -0.534408 -0.65484 -0.534409
vn -0.698238 -0.65484 -0.28922
vn 0.000001 1.0 0.0
vn -0.28922 -0.65484 -0.698238
vn -0.534408 -0.65484 -0.534409
vn 0.000001 1.0 0.0
vn 0.0 -0.65484 -0.755768
vn -0.28922 -0.65484 -0.698238
vn 0.0 -1.0 0.0
vn 0.0 -0.65484 -0.755768
vn 0.28922 -0.65484 -0.698238
vn 0.0 -1.0 0.0
vn 0.28922 -0.65484 -0.698238
vn 0.534408 -0.65484 -0.534408
vn 0.0 -1.0 0.0
vn 0.534408 -0.65484 -0.534408
vn 0.698238 -0.65484 -0.28922
vn 0.0 -1.0 0.0
vn 0.698238 -0.65484 -0.28922
vn 0.755768 -0.65484 0.0
vn 0.0 -1.0 0.0
vn 0.755768 -0.65484 0.0
vn 0.698238 -0.65484 0.28922
vn 0.0 -1.0 0.0
vn 0.698238 -0.65484 0.28922
vn 0.534408 -0.65484 0.534408
vn 0.0 -1.0 0.0
vn 0.534408 -0.65484 0.534408
vn 0.28922 -0.65484 0.698238
vn 0.0 -1.0 0.0
vn 0.28922 -0.65484 0.698238
vn 0.0 -0.65484 0.755768
vn 0.0 -1.0 0.0
vn 0.0 -0.65484 0.755768
vn -0.28922 -0.65484 0.698238
vn 0.0 -1.0 0.0
vn -0.28922 -0.65484 0.698238
vn -0.534408 -0.65484 0.534409
vn 0.0 -1.0 0.0
vn -0.534408 -0.65484 0.534409
vn -0.698238 -0.65484 0.28922
vn 0.0 -1.0 0.0
vn -0.698238 -0.65484 0.28922
vn -0.755768 -0.65484 -0.0
vn 0.0 -1.0 0.0
vn -0.755768 -0.65484 -0.0
vn -0.698238 -0.65484 -0.28922
vn 0.0 -1.0 0.0
vn -0.698238 -0.65484 -0.28922
vn -0.534408 -0.65484 -0.534409
vn 0.0 -1.0 0.0
vn -0.534408 -0.65484 -0.534409
vn -0.28922 -0.65484 -0.698238
vn -0.28922 -0.65484 -0.698238
vn 0.0 -0.65484 -0.755768
vn 0.0 -1.0 0.0

# ungrouped, 32 grouped triangles

o ungrouped
g ungrouped

f 2/1/1 1/2/2 17/3/3
f 17/4/4 3/5/5 2/6/6
f 17/7/7 4/8/8 3/9/9
f 17/10/10 5/11/11 4/12/12
f 17/13/13 6/14/14 5/15/15
f 17/16/16 7/17/17 6/18/18
f 17/19/19 8/20/20 7/21/21
f 17/22/22 9/23/23 8/24/24
f 17/25/25 10/26/26 9/27/27
f 17/28/28 11/29/29 10/30/30
f 17/31/31 12/32/32 11/33/33
f 17/34/34 13/35/35 12/36/36
f 17/37/37 14/38/38 13/39/39
f 17/40/40 15/41/41 14/42/42
f 17/43/43 16/44/44 15/45/45
f 17/46/46 1/47/47 16/48/48
f 18/49/49 1/50/50 2/51/51
f 18/52/52 2/53/53 3/54/54
f 18/55/55 3/56/56 4/57/57
f 18/58/58 4/59/59 5/60/60
f 18/61/61 5/62/62 6/63/63
f 18/64/64 6/65/65 7/66/66
f 18/67/67 7/68/68 8/69/69
f 18/70/70 8/71/71 9/72/72
f 18/73/73 9/74/74 10/75/75
f 18/76/76 10/77/77 11/78/78
f 18/79/79 11/80/80 12/81/81
f 18/82/82 12/83/83 13/84/84
f 18/85/85 13/86/86 14/87/87
f 18/88/88 14/89/89 15/90/90
f 18/91/91 15/92/92 16/93/93
f 16/94/94 1/95/95 18/96/96
